# xmcd CD database file
#
# Track frame offsets:
#	150
#	28850
#	51800
#	80375
#	98825
#	116000
#	139250
#	158525
#	168950
#	192425
#
# Disc length: 2856 seconds
#
# Revision: 1
# Processed by: cddbd v1.5.2PL0 Copyright (c) Steve Scherf et al.
# Submitted via: CDex 1.51
#
DISCID=7d0b260a
DTITLE=שונים - אוסף קרלסברג בלוז ובירה
DYEAR=1992
DGENRE=Blues
TTITLE0=Gary Moore - Still Got the Blues
TTITLE1=John Lee Hooker - Backstabbers
TTITLE2=Johnny Winter - Life is Hard
TTITLE3=Walter Wolfman Washington - Ain't No Love in the Heart of the City
TTITLE4=רמי קליינשטיין והמועצה - Monsieur Shamotier
TTITLE5=John Hammond - Driftin' Blues
TTITLE6=Blues Traveler - All in the Groove
TTITLE7=John Mayall - I Want to Go
TTITLE8=Albert Collins - Mr. Collins
TTITLE9=Ten Years After - I Get All Shook Up
EXTD=YEAR: 1992
EXTT0=
EXTT1=
EXTT2=
EXTT3=
EXTT4=
EXTT5=
EXTT6=
EXTT7=
EXTT8=
EXTT9=
PLAYORDER=
